<?xml version="1.0" standalone="no"?>
<!DOCTYPE svg PUBLIC "-//W3C//DTD SVG 20010904//EN"
 "http://www.w3.org/TR/2001/REC-SVG-20010904/DTD/svg10.dtd">
<svg version="1.0" xmlns="http://www.w3.org/2000/svg"
 width="941.000000pt" height="941.000000pt" viewBox="0 0 941.000000 941.000000"
 preserveAspectRatio="xMidYMid meet">
<metadata>
Created by potrace 1.14, written by Peter Selinger 2001-2017
</metadata>
<g transform="translate(0.000000,941.000000) scale(0.100000,-0.100000)"
fill="#000000" stroke="none">
<path d="M5898 9145 c-2 -1 -39 -5 -83 -8 -106 -8 -256 -40 -363 -77 -48 -17
-91 -32 -97 -33 -5 -2 -39 -18 -75 -36 -191 -98 -312 -219 -360 -361 -19 -57
-21 -84 -21 -259 l1 -196 -122 -70 c-67 -38 -147 -84 -178 -101 -30 -17 -127
-73 -215 -124 -166 -96 -351 -203 -395 -227 -14 -8 -45 -27 -70 -42 l-45 -28
-70 18 c-212 54 -518 58 -762 10 -368 -72 -648 -257 -722 -479 -18 -54 -21
-86 -21 -259 l0 -198 -63 -36 c-34 -19 -170 -98 -302 -174 -132 -76 -255 -146
-273 -157 -18 -10 -44 -26 -58 -34 l-24 -16 2 -2401 3 -2400 335 -194 c383
-221 377 -218 410 -235 14 -7 27 -15 30 -18 3 -4 35 -22 71 -42 92 -50 113
-62 119 -68 3 -3 21 -14 40 -25 19 -10 132 -75 250 -143 118 -69 238 -137 265
-153 28 -15 162 -93 300 -173 170 -99 253 -142 261 -135 10 8 266 157 423 247
25 13 68 38 95 55 28 16 67 39 86 50 68 38 629 361 690 397 13 7 190 110 343
198 23 13 100 58 172 99 71 42 168 98 214 124 46 27 86 49 89 49 3 0 13 6 21
14 9 7 43 28 76 46 33 17 65 35 70 40 6 4 30 18 55 32 25 14 105 60 179 103
74 42 149 85 165 95 66 37 607 349 806 465 69 40 141 82 160 93 19 10 141 80
270 155 l235 136 1 2395 1 2395 -141 82 c-78 45 -157 90 -176 101 -19 11 -117
67 -218 125 l-182 106 0 347 c1 330 0 351 -21 412 -31 94 -103 187 -204 266
-36 28 -122 76 -190 107 -44 20 -87 40 -96 45 -29 15 -255 69 -340 80 -72 10
-343 22 -351 15z"/>
</g>
</svg>
